<svg xmlns="http://www.w3.org/2000/svg" width="32" height="32" enable-background="new 0 0 32 32" viewBox="0 0 32 32" id="flash"><rect width="32" height="32" fill="none"></rect><path d="M21,17H11c-0.552,0-1-0.448-1-1s0.448-1,1-1h10c0.552,0,1,0.448,1,1S21.552,17,21,17z"></path><path d="M11 17c-.131 0-.265-.026-.394-.082-.507-.217-.743-.805-.525-1.313l6-14c.217-.507.803-.744 1.313-.525.507.217.743.805.525 1.313l-6 14C11.757 16.773 11.388 17 11 17zM15 31c-.131 0-.265-.026-.394-.082-.507-.217-.743-.805-.525-1.313l6-14c.217-.507.805-.744 1.313-.525.507.217.743.805.525 1.313l-6 14C15.757 30.773 15.388 31 15 31z"></path></svg>