<svg version="1.1" xmlns="http://www.w3.org/2000/svg" viewBox="0 0 1654.9369060712322 582.732231375081" width="3309.8738121424644" height="1165.464462750162">
  <!-- svg-source:excalidraw -->
  
  <defs>
    <style class="style-fonts">
      @font-face {
        font-family: "Virgil";
        src: url("https://excalidraw.com/Virgil.woff2");
      }
      @font-face {
        font-family: "Cascadia";
        src: url("https://excalidraw.com/Cascadia.woff2");
      }
    </style>
  </defs>
  <g stroke-linecap="round" transform="translate(10 117.45740078922012) rotate(0 76 53)"><path d="M26.5 0 M26.5 0 C55.36 -0.54, 85.81 1, 125.5 0 M26.5 0 C47.37 -0.49, 69.7 -0.41, 125.5 0 M125.5 0 C143.23 1, 150.13 8.07, 152 26.5 M125.5 0 C141.41 1.84, 150.45 6.63, 152 26.5 M152 26.5 C152.99 46.67, 151.35 62.35, 152 79.5 M152 26.5 C151.06 42.49, 151.58 60.69, 152 79.5 M152 79.5 C151.74 95.8, 142.47 105.55, 125.5 106 M152 79.5 C153.73 95.92, 143 107.29, 125.5 106 M125.5 106 C106.53 108.14, 86.97 105.11, 26.5 106 M125.5 106 C104.37 106.19, 84.45 106.13, 26.5 106 M26.5 106 C10.57 104.92, -1.14 95.67, 0 79.5 M26.5 106 C8.04 106.76, -1.96 95.37, 0 79.5 M0 79.5 C-0.11 67.74, 1.55 57.3, 0 26.5 M0 79.5 C0.66 65.52, 0.49 53.13, 0 26.5 M0 26.5 C1.17 9.08, 8.53 -1.9, 26.5 0 M0 26.5 C2.06 10.2, 6.69 1.73, 26.5 0" stroke="#000000" stroke-width="1" fill="none"></path></g><g transform="translate(37.20001983642578 157.95740078922012) rotate(0 48.79998016357422 12.5)"><text x="48.79998016357422" y="0" font-family="Virgil, Segoe UI Emoji" font-size="20px" fill="#000000" text-anchor="middle" style="white-space: pre;" direction="ltr" dominant-baseline="text-before-edge">Read WAV</text></g><g stroke-linecap="round"><g transform="translate(170.66668701171875 171.45743130679824) rotate(0 32.41662230938678 -0.19911815424450197)"><path d="M-1.15 0.08 C9.72 -0.03, 54.77 -0.73, 65.99 -0.9 M0.44 -0.92 C11.15 -0.82, 54.49 0.32, 65.38 0.52" stroke="#000000" stroke-width="1" fill="none"></path></g><g transform="translate(170.66668701171875 171.45743130679824) rotate(0 32.41662230938678 -0.19911815424450197)"><path d="M37.1 11.22 C46.9 8.27, 57.22 1.97, 65.67 1.24 M37.38 10.87 C45.32 6.85, 55.33 4.68, 65.72 0.09" stroke="#000000" stroke-width="1" fill="none"></path></g><g transform="translate(170.66668701171875 171.45743130679824) rotate(0 32.41662230938678 -0.19911815424450197)"><path d="M37.57 -9.29 C47.16 -4.82, 57.31 -3.68, 65.67 1.24 M37.85 -9.64 C45.65 -7.11, 55.51 -2.73, 65.72 0.09" stroke="#000000" stroke-width="1" fill="none"></path></g></g><mask></mask><g stroke-linecap="round" transform="translate(256.66668701171875 122.79077481265762) rotate(0 87.66665649414062 54)"><path d="M27 0 M27 0 C56.71 0.38, 88.35 -1.31, 148.33 0 M27 0 C51.24 0.68, 77.11 0.29, 148.33 0 M148.33 0 C167.67 -0.5, 175.13 7.37, 175.33 27 M148.33 0 C166.95 2.02, 174.06 10.97, 175.33 27 M175.33 27 C174.61 45.62, 173.74 66.81, 175.33 81 M175.33 27 C174.93 45.7, 176.59 65.15, 175.33 81 M175.33 81 C176.47 99.53, 165.83 108.97, 148.33 108 M175.33 81 C175.44 98.15, 165.16 109.3, 148.33 108 M148.33 108 C108.59 107.29, 67.98 107.93, 27 108 M148.33 108 C113.57 109.31, 77.06 109.63, 27 108 M27 108 C8.52 106.54, -1.28 99.54, 0 81 M27 108 C9.78 107.19, -0.09 99.51, 0 81 M0 81 C0.33 64.79, -1.46 45.51, 0 27 M0 81 C-0.95 67.95, -0.61 55.07, 0 27 M0 27 C-1.1 7.25, 7.38 -1.32, 27 0 M0 27 C1.13 10.21, 10.65 1.35, 27 0" stroke="#000000" stroke-width="1" fill="none"></path></g><g transform="translate(290.6233825683594 151.79077481265762) rotate(0 53.7099609375 25)"><text x="53.7099609375" y="0" font-family="Virgil, Segoe UI Emoji" font-size="20px" fill="#000000" text-anchor="middle" style="white-space: pre;" direction="ltr" dominant-baseline="text-before-edge"> Resample </text><text x="53.7099609375" y="25" font-family="Virgil, Segoe UI Emoji" font-size="20px" fill="#000000" text-anchor="middle" style="white-space: pre;" direction="ltr" dominant-baseline="text-before-edge">waveforms</text></g><g stroke-linecap="round" transform="translate(491.9999694824219 122.12408780093887) rotate(0 87.66665649414062 54)"><path d="M27 0 M27 0 C56.71 0.38, 88.35 -1.31, 148.33 0 M27 0 C51.24 0.68, 77.11 0.29, 148.33 0 M148.33 0 C167.67 -0.5, 175.13 7.37, 175.33 27 M148.33 0 C166.95 2.02, 174.06 10.97, 175.33 27 M175.33 27 C174.61 45.62, 173.74 66.81, 175.33 81 M175.33 27 C174.93 45.7, 176.59 65.15, 175.33 81 M175.33 81 C176.47 99.53, 165.83 108.97, 148.33 108 M175.33 81 C175.44 98.15, 165.16 109.3, 148.33 108 M148.33 108 C108.59 107.29, 67.98 107.93, 27 108 M148.33 108 C113.57 109.31, 77.06 109.63, 27 108 M27 108 C8.52 106.54, -1.28 99.54, 0 81 M27 108 C9.78 107.19, -0.09 99.51, 0 81 M0 81 C0.33 64.79, -1.46 45.51, 0 27 M0 81 C-0.95 67.95, -0.61 55.07, 0 27 M0 27 C-1.1 7.25, 7.38 -1.32, 27 0 M0 27 C1.13 10.21, 10.65 1.35, 27 0" stroke="#000000" stroke-width="1" fill="none"></path></g><g transform="translate(509.3466796875 163.62408780093887) rotate(0 70.3199462890625 12.5)"><text x="70.3199462890625" y="0" font-family="Virgil, Segoe UI Emoji" font-size="20px" fill="#000000" text-anchor="middle" style="white-space: pre;" direction="ltr" dominant-baseline="text-before-edge">FM Modulation</text></g><g stroke-linecap="round" transform="translate(731.0000305175781 118.79074429507949) rotate(0 87.66665649414062 54)"><path d="M27 0 M27 0 C56.71 0.38, 88.35 -1.31, 148.33 0 M27 0 C51.24 0.68, 77.11 0.29, 148.33 0 M148.33 0 C167.67 -0.5, 175.13 7.37, 175.33 27 M148.33 0 C166.95 2.02, 174.06 10.97, 175.33 27 M175.33 27 C174.61 45.62, 173.74 66.81, 175.33 81 M175.33 27 C174.93 45.7, 176.59 65.15, 175.33 81 M175.33 81 C176.47 99.53, 165.83 108.97, 148.33 108 M175.33 81 C175.44 98.15, 165.16 109.3, 148.33 108 M148.33 108 C108.59 107.29, 67.98 107.93, 27 108 M148.33 108 C113.57 109.31, 77.06 109.63, 27 108 M27 108 C8.52 106.54, -1.28 99.54, 0 81 M27 108 C9.78 107.19, -0.09 99.51, 0 81 M0 81 C0.33 64.79, -1.46 45.51, 0 27 M0 81 C-0.95 67.95, -0.61 55.07, 0 27 M0 27 C-1.1 7.25, 7.38 -1.32, 27 0 M0 27 C1.13 10.21, 10.65 1.35, 27 0" stroke="#000000" stroke-width="1" fill="none"></path></g><g transform="translate(797.2866973876953 160.2907442950795) rotate(0 21.379989624023438 12.5)"><text x="21.379989624023438" y="0" font-family="Virgil, Segoe UI Emoji" font-size="20px" fill="#000000" text-anchor="middle" style="white-space: pre;" direction="ltr" dominant-baseline="text-before-edge">DUC</text></g><g stroke-linecap="round" transform="translate(982.6667785644531 118.12405728336074) rotate(0 87.66665649414062 54)"><path d="M27 0 M27 0 C56.71 0.38, 88.35 -1.31, 148.33 0 M27 0 C51.24 0.68, 77.11 0.29, 148.33 0 M148.33 0 C167.67 -0.5, 175.13 7.37, 175.33 27 M148.33 0 C166.95 2.02, 174.06 10.97, 175.33 27 M175.33 27 C174.61 45.62, 173.74 66.81, 175.33 81 M175.33 27 C174.93 45.7, 176.59 65.15, 175.33 81 M175.33 81 C176.47 99.53, 165.83 108.97, 148.33 108 M175.33 81 C175.44 98.15, 165.16 109.3, 148.33 108 M148.33 108 C108.59 107.29, 67.98 107.93, 27 108 M148.33 108 C113.57 109.31, 77.06 109.63, 27 108 M27 108 C8.52 106.54, -1.28 99.54, 0 81 M27 108 C9.78 107.19, -0.09 99.51, 0 81 M0 81 C0.33 64.79, -1.46 45.51, 0 27 M0 81 C-0.95 67.95, -0.61 55.07, 0 27 M0 27 C-1.1 7.25, 7.38 -1.32, 27 0 M0 27 C1.13 10.21, 10.65 1.35, 27 0" stroke="#000000" stroke-width="1" fill="none"></path></g><g transform="translate(1049.533447265625 159.62405728336074) rotate(0 20.79998779296875 12.5)"><text x="20.79998779296875" y="0" font-family="Virgil, Segoe UI Emoji" font-size="20px" fill="#000000" text-anchor="middle" style="white-space: pre;" direction="ltr" dominant-baseline="text-before-edge">DAC</text></g><g stroke-linecap="round" transform="translate(1210.6667785644531 114.12405728336074) rotate(0 87.66665649414062 54)"><path d="M27 0 M27 0 C56.71 0.38, 88.35 -1.31, 148.33 0 M27 0 C51.24 0.68, 77.11 0.29, 148.33 0 M148.33 0 C167.67 -0.5, 175.13 7.37, 175.33 27 M148.33 0 C166.95 2.02, 174.06 10.97, 175.33 27 M175.33 27 C174.61 45.62, 173.74 66.81, 175.33 81 M175.33 27 C174.93 45.7, 176.59 65.15, 175.33 81 M175.33 81 C176.47 99.53, 165.83 108.97, 148.33 108 M175.33 81 C175.44 98.15, 165.16 109.3, 148.33 108 M148.33 108 C108.59 107.29, 67.98 107.93, 27 108 M148.33 108 C113.57 109.31, 77.06 109.63, 27 108 M27 108 C8.52 106.54, -1.28 99.54, 0 81 M27 108 C9.78 107.19, -0.09 99.51, 0 81 M0 81 C0.33 64.79, -1.46 45.51, 0 27 M0 81 C-0.95 67.95, -0.61 55.07, 0 27 M0 27 C-1.1 7.25, 7.38 -1.32, 27 0 M0 27 C1.13 10.21, 10.65 1.35, 27 0" stroke="#000000" stroke-width="1" fill="none"></path></g><g transform="translate(1279.9934463500977 155.62405728336074) rotate(0 18.339988708496094 12.5)"><text x="18.339988708496094" y="0" font-family="Virgil, Segoe UI Emoji" font-size="20px" fill="#000000" text-anchor="middle" style="white-space: pre;" direction="ltr" dominant-baseline="text-before-edge">LPF</text></g><g stroke-linecap="round" transform="translate(1460.476776218512 136.87201848239795) rotate(0 31.307242252714786 30.807337173754064)"><path d="M20.69 1.06 C26.62 -1.27, 35.64 0.12, 41.96 2.44 C48.28 4.76, 55.05 9.48, 58.59 14.99 C62.12 20.49, 64.42 29, 63.17 35.47 C61.93 41.94, 56.45 49.57, 51.12 53.79 C45.78 58.02, 37.89 60.83, 31.16 60.82 C24.42 60.8, 15.71 57.69, 10.72 53.68 C5.73 49.66, 2.45 43.13, 1.22 36.73 C0 30.33, -0.61 21.46, 3.36 15.28 C7.33 9.1, 20.47 1.98, 25.03 -0.35 C29.58 -2.69, 30.49 0.52, 30.66 1.26 M26.6 0.33 C33.17 -0.79, 43.85 1.71, 49.58 5.24 C55.3 8.78, 59.04 15.45, 60.96 21.53 C62.87 27.61, 63.86 35.78, 61.05 41.71 C58.24 47.64, 50.28 53.73, 44.11 57.1 C37.94 60.48, 30.36 63.08, 24.03 61.97 C17.7 60.85, 10.23 55.99, 6.14 50.4 C2.05 44.81, -0.97 34.99, -0.51 28.42 C-0.05 21.86, 4.39 15.88, 8.92 11.01 C13.44 6.14, 23.58 0.83, 26.64 -0.8 C29.69 -2.43, 27.27 0.73, 27.24 1.22" stroke="#000000" stroke-width="1" fill="none"></path></g><g stroke-linecap="round"><g transform="translate(1470.5163402317662 144.82413155475268) rotate(0 22.811934683865047 21.354512538978184)"><path d="M0.66 -0.11 C11.75 11.34, 18.65 18.49, 44.96 42.72 M0.96 -0.54 C17.52 17.52, 34.53 33.73, 43.98 43.25" stroke="#000000" stroke-width="1" fill="none"></path></g></g><mask></mask><g stroke-linecap="round"><g transform="translate(1513.7841741497612 145.78265014263656) rotate(0 -23.422605351296852 20.178986969200793)"><path d="M-1.4 -1.36 C-15.49 14.78, -36 30.17, -44.55 41.44 M-0.91 -0.93 C-14.56 13.96, -29.6 25.34, -45.94 41.71" stroke="#000000" stroke-width="1" fill="none"></path></g></g><mask></mask><g stroke-linecap="round" transform="translate(23.314491605542344 372.5906972557653) rotate(0 76 53)"><path d="M26.5 0 M26.5 0 C55.36 -0.54, 85.81 1, 125.5 0 M26.5 0 C47.37 -0.49, 69.7 -0.41, 125.5 0 M125.5 0 C143.23 1, 150.13 8.07, 152 26.5 M125.5 0 C141.41 1.84, 150.45 6.63, 152 26.5 M152 26.5 C152.99 46.67, 151.35 62.35, 152 79.5 M152 26.5 C151.06 42.49, 151.58 60.69, 152 79.5 M152 79.5 C151.74 95.8, 142.47 105.55, 125.5 106 M152 79.5 C153.73 95.92, 143 107.29, 125.5 106 M125.5 106 C106.53 108.14, 86.97 105.11, 26.5 106 M125.5 106 C104.37 106.19, 84.45 106.13, 26.5 106 M26.5 106 C10.57 104.92, -1.14 95.67, 0 79.5 M26.5 106 C8.04 106.76, -1.96 95.37, 0 79.5 M0 79.5 C-0.11 67.74, 1.55 57.3, 0 26.5 M0 79.5 C0.66 65.52, 0.49 53.13, 0 26.5 M0 26.5 C1.17 9.08, 8.53 -1.9, 26.5 0 M0 26.5 C2.06 10.2, 6.69 1.73, 26.5 0" stroke="#000000" stroke-width="1" fill="none"></path></g><g transform="translate(50.514511441968125 413.0906972557653) rotate(0 48.79998016357422 12.5)"><text x="48.79998016357422" y="0" font-family="Virgil, Segoe UI Emoji" font-size="20px" fill="#000000" text-anchor="middle" style="white-space: pre;" direction="ltr" dominant-baseline="text-before-edge">Read WAV</text></g><g stroke-linecap="round" transform="translate(250.6478045938236 371.2574453026403) rotate(0 87.66665649414062 54)"><path d="M27 0 M27 0 C56.71 0.38, 88.35 -1.31, 148.33 0 M27 0 C51.24 0.68, 77.11 0.29, 148.33 0 M148.33 0 C167.67 -0.5, 175.13 7.37, 175.33 27 M148.33 0 C166.95 2.02, 174.06 10.97, 175.33 27 M175.33 27 C174.61 45.62, 173.74 66.81, 175.33 81 M175.33 27 C174.93 45.7, 176.59 65.15, 175.33 81 M175.33 81 C176.47 99.53, 165.83 108.97, 148.33 108 M175.33 81 C175.44 98.15, 165.16 109.3, 148.33 108 M148.33 108 C108.59 107.29, 67.98 107.93, 27 108 M148.33 108 C113.57 109.31, 77.06 109.63, 27 108 M27 108 C8.52 106.54, -1.28 99.54, 0 81 M27 108 C9.78 107.19, -0.09 99.51, 0 81 M0 81 C0.33 64.79, -1.46 45.51, 0 27 M0 81 C-0.95 67.95, -0.61 55.07, 0 27 M0 27 C-1.1 7.25, 7.38 -1.32, 27 0 M0 27 C1.13 10.21, 10.65 1.35, 27 0" stroke="#000000" stroke-width="1" fill="none"></path></g><g transform="translate(284.6045001504642 400.2574453026403) rotate(0 53.7099609375 25)"><text x="53.7099609375" y="0" font-family="Virgil, Segoe UI Emoji" font-size="20px" fill="#000000" text-anchor="middle" style="white-space: pre;" direction="ltr" dominant-baseline="text-before-edge"> Resample </text><text x="53.7099609375" y="25" font-family="Virgil, Segoe UI Emoji" font-size="20px" fill="#000000" text-anchor="middle" style="white-space: pre;" direction="ltr" dominant-baseline="text-before-edge">waveforms</text></g><g stroke-linecap="round" transform="translate(495.3144610879642 377.2573537499059) rotate(0 87.66665649414062 54)"><path d="M27 0 M27 0 C56.71 0.38, 88.35 -1.31, 148.33 0 M27 0 C51.24 0.68, 77.11 0.29, 148.33 0 M148.33 0 C167.67 -0.5, 175.13 7.37, 175.33 27 M148.33 0 C166.95 2.02, 174.06 10.97, 175.33 27 M175.33 27 C174.61 45.62, 173.74 66.81, 175.33 81 M175.33 27 C174.93 45.7, 176.59 65.15, 175.33 81 M175.33 81 C176.47 99.53, 165.83 108.97, 148.33 108 M175.33 81 C175.44 98.15, 165.16 109.3, 148.33 108 M148.33 108 C108.59 107.29, 67.98 107.93, 27 108 M148.33 108 C113.57 109.31, 77.06 109.63, 27 108 M27 108 C8.52 106.54, -1.28 99.54, 0 81 M27 108 C9.78 107.19, -0.09 99.51, 0 81 M0 81 C0.33 64.79, -1.46 45.51, 0 27 M0 81 C-0.95 67.95, -0.61 55.07, 0 27 M0 27 C-1.1 7.25, 7.38 -1.32, 27 0 M0 27 C1.13 10.21, 10.65 1.35, 27 0" stroke="#000000" stroke-width="1" fill="none"></path></g><g transform="translate(500.72118411042516 418.7573537499059) rotate(0 82.25993347167969 12.5)"><text x="82.25993347167969" y="0" font-family="Virgil, Segoe UI Emoji" font-size="20px" fill="#000000" text-anchor="middle" style="white-space: pre;" direction="ltr" dominant-baseline="text-before-edge">FM Demodulation</text></g><g stroke-linecap="round" transform="translate(734.3144610879642 381.9239797264684) rotate(0 87.66665649414062 54)"><path d="M27 0 M27 0 C56.71 0.38, 88.35 -1.31, 148.33 0 M27 0 C51.24 0.68, 77.11 0.29, 148.33 0 M148.33 0 C167.67 -0.5, 175.13 7.37, 175.33 27 M148.33 0 C166.95 2.02, 174.06 10.97, 175.33 27 M175.33 27 C174.61 45.62, 173.74 66.81, 175.33 81 M175.33 27 C174.93 45.7, 176.59 65.15, 175.33 81 M175.33 81 C176.47 99.53, 165.83 108.97, 148.33 108 M175.33 81 C175.44 98.15, 165.16 109.3, 148.33 108 M148.33 108 C108.59 107.29, 67.98 107.93, 27 108 M148.33 108 C113.57 109.31, 77.06 109.63, 27 108 M27 108 C8.52 106.54, -1.28 99.54, 0 81 M27 108 C9.78 107.19, -0.09 99.51, 0 81 M0 81 C0.33 64.79, -1.46 45.51, 0 27 M0 81 C-0.95 67.95, -0.61 55.07, 0 27 M0 27 C-1.1 7.25, 7.38 -1.32, 27 0 M0 27 C1.13 10.21, 10.65 1.35, 27 0" stroke="#000000" stroke-width="1" fill="none"></path></g><g transform="translate(799.9411319253666 423.4239797264684) rotate(0 22.03998565673828 12.5)"><text x="22.03998565673828" y="0" font-family="Virgil, Segoe UI Emoji" font-size="20px" fill="#000000" text-anchor="middle" style="white-space: pre;" direction="ltr" dominant-baseline="text-before-edge">DDC</text></g><g stroke-linecap="round" transform="translate(983.981392240308 385.9241017967809) rotate(0 87.66665649414062 54)"><path d="M27 0 M27 0 C56.71 0.38, 88.35 -1.31, 148.33 0 M27 0 C51.24 0.68, 77.11 0.29, 148.33 0 M148.33 0 C167.67 -0.5, 175.13 7.37, 175.33 27 M148.33 0 C166.95 2.02, 174.06 10.97, 175.33 27 M175.33 27 C174.61 45.62, 173.74 66.81, 175.33 81 M175.33 27 C174.93 45.7, 176.59 65.15, 175.33 81 M175.33 81 C176.47 99.53, 165.83 108.97, 148.33 108 M175.33 81 C175.44 98.15, 165.16 109.3, 148.33 108 M148.33 108 C108.59 107.29, 67.98 107.93, 27 108 M148.33 108 C113.57 109.31, 77.06 109.63, 27 108 M27 108 C8.52 106.54, -1.28 99.54, 0 81 M27 108 C9.78 107.19, -0.09 99.51, 0 81 M0 81 C0.33 64.79, -1.46 45.51, 0 27 M0 81 C-0.95 67.95, -0.61 55.07, 0 27 M0 27 C-1.1 7.25, 7.38 -1.32, 27 0 M0 27 C1.13 10.21, 10.65 1.35, 27 0" stroke="#000000" stroke-width="1" fill="none"></path></g><g transform="translate(1050.8480609414798 427.4241017967809) rotate(0 20.79998779296875 12.5)"><text x="20.79998779296875" y="0" font-family="Virgil, Segoe UI Emoji" font-size="20px" fill="#000000" text-anchor="middle" style="white-space: pre;" direction="ltr" dominant-baseline="text-before-edge">ADC</text></g><g stroke-linecap="round" transform="translate(1210.647896146558 381.92404076162467) rotate(0 87.66665649414062 54)"><path d="M27 0 M27 0 C56.71 0.38, 88.35 -1.31, 148.33 0 M27 0 C51.24 0.68, 77.11 0.29, 148.33 0 M148.33 0 C167.67 -0.5, 175.13 7.37, 175.33 27 M148.33 0 C166.95 2.02, 174.06 10.97, 175.33 27 M175.33 27 C174.61 45.62, 173.74 66.81, 175.33 81 M175.33 27 C174.93 45.7, 176.59 65.15, 175.33 81 M175.33 81 C176.47 99.53, 165.83 108.97, 148.33 108 M175.33 81 C175.44 98.15, 165.16 109.3, 148.33 108 M148.33 108 C108.59 107.29, 67.98 107.93, 27 108 M148.33 108 C113.57 109.31, 77.06 109.63, 27 108 M27 108 C8.52 106.54, -1.28 99.54, 0 81 M27 108 C9.78 107.19, -0.09 99.51, 0 81 M0 81 C0.33 64.79, -1.46 45.51, 0 27 M0 81 C-0.95 67.95, -0.61 55.07, 0 27 M0 27 C-1.1 7.25, 7.38 -1.32, 27 0 M0 27 C1.13 10.21, 10.65 1.35, 27 0" stroke="#000000" stroke-width="1" fill="none"></path></g><g transform="translate(1279.9745639322025 423.42404076162467) rotate(0 18.339988708496094 12.5)"><text x="18.339988708496094" y="0" font-family="Virgil, Segoe UI Emoji" font-size="20px" fill="#000000" text-anchor="middle" style="white-space: pre;" direction="ltr" dominant-baseline="text-before-edge">LPF</text></g><g stroke-linecap="round"><g transform="translate(444.1971992782387 176.06223879640424) rotate(0 16.605975021036784 0.4634801599898708)"><path d="M-1.45 1.13 C8.41 -0.33, 14.58 0.11, 32.3 1.9 M-0.99 -0.97 C6.63 0.78, 14.32 0.2, 34.66 0.85" stroke="#000000" stroke-width="1" fill="none"></path></g><g transform="translate(444.1971992782387 176.06223879640424) rotate(0 16.605975021036784 0.4634801599898708)"><path d="M17.49 7.19 C22.81 4.51, 24.98 3.42, 33.51 1.86 M17.88 5.42 C21.73 5.78, 25.68 4.07, 35.5 0.98" stroke="#000000" stroke-width="1" fill="none"></path></g><g transform="translate(444.1971992782387 176.06223879640424) rotate(0 16.605975021036784 0.4634801599898708)"><path d="M17.76 -4.32 C22.92 -4.19, 25.03 -2.47, 33.51 1.86 M18.14 -6.09 C22.01 -3.38, 25.89 -2.74, 35.5 0.98" stroke="#000000" stroke-width="1" fill="none"></path></g></g><mask></mask><g stroke-linecap="round"><g transform="translate(679.233549450492 177.37309215823774) rotate(0 21.327071743355646 -2.477081387442041)"><path d="M1.42 -1.15 C12.43 0.73, 23.86 -1.82, 43.19 -2.5 M-0.54 -0.83 C17.11 -1.29, 32.52 -2.81, 42.9 -4.48" stroke="#000000" stroke-width="1" fill="none"></path></g><g transform="translate(679.233549450492 177.37309215823774) rotate(0 21.327071743355646 -2.477081387442041)"><path d="M25.61 4.2 C29.56 4.13, 33.93 -0.25, 43.99 -3.22 M23.65 4.52 C31.97 1.75, 38.07 -2.18, 43.69 -5.21" stroke="#000000" stroke-width="1" fill="none"></path></g><g transform="translate(679.233549450492 177.37309215823774) rotate(0 21.327071743355646 -2.477081387442041)"><path d="M23.67 -10.13 C28.23 -5.87, 33.19 -5.93, 43.99 -3.22 M21.71 -9.81 C30.85 -6.88, 37.72 -5.11, 43.69 -5.21" stroke="#000000" stroke-width="1" fill="none"></path></g></g><mask></mask><g stroke-linecap="round"><g transform="translate(923.7258797448535 172.050089187908) rotate(0 27.411309312451294 1.479252206528031)"><path d="M-1.35 1.39 C16.79 -0.84, 36.46 0.77, 56.18 2.65 M0.17 0.74 C15.19 1, 28.21 0.8, 55.28 2.28" stroke="#000000" stroke-width="1" fill="none"></path></g><g transform="translate(923.7258797448535 172.050089187908) rotate(0 27.411309312451294 1.479252206528031)"><path d="M27.45 11.99 C35.86 6.36, 45.8 4.55, 55.98 3.07 M28.98 11.34 C36.47 9, 42.04 6.19, 55.09 2.7" stroke="#000000" stroke-width="1" fill="none"></path></g><g transform="translate(923.7258797448535 172.050089187908) rotate(0 27.411309312451294 1.479252206528031)"><path d="M28.3 -6.98 C36.43 -6.24, 46.08 -1.69, 55.98 3.07 M29.82 -7.62 C37.28 -5.1, 42.64 -3.04, 55.09 2.7" stroke="#000000" stroke-width="1" fill="none"></path></g></g><mask></mask><g stroke-linecap="round"><g transform="translate(1171.889314181552 179.92078390227812) rotate(0 13.460368684915807 -0.8248388896029155)"><path d="M1.31 -1.99 C8.98 -1.14, 19.94 -0.31, 26.95 0.34 M-0.03 -0.94 C10.99 0.35, 19.71 -0.71, 25.69 -1.57" stroke="#000000" stroke-width="1" fill="none"></path></g><g transform="translate(1171.889314181552 179.92078390227812) rotate(0 13.460368684915807 -0.8248388896029155)"><path d="M14.7 3.18 C17.48 1.57, 22.48 -0.08, 25.89 -0.89 M13.8 3.87 C18.89 2.58, 22.44 -0.28, 25.05 -2.16" stroke="#000000" stroke-width="1" fill="none"></path></g><g transform="translate(1171.889314181552 179.92078390227812) rotate(0 13.460368684915807 -0.8248388896029155)"><path d="M13.57 -5.87 C16.83 -3.95, 22.27 -2.05, 25.89 -0.89 M12.68 -5.17 C18.19 -2.99, 22.16 -2.37, 25.05 -2.16" stroke="#000000" stroke-width="1" fill="none"></path></g></g><mask></mask><g stroke-linecap="round"><g transform="translate(1401.3682969192657 169.73373328836266) rotate(0 24.999865576649086 0.88019455146366)"><path d="M-1.84 -0.08 C14.33 -0.49, 27.55 1.44, 50.48 1.15 M-0.08 -0.32 C10.72 1.39, 21.15 0, 51.84 2.08" stroke="#000000" stroke-width="1" fill="none"></path></g><g transform="translate(1401.3682969192657 169.73373328836266) rotate(0 24.999865576649086 0.88019455146366)"><path d="M25.64 9.54 C34.23 6.49, 39.84 5.91, 51.33 1.97 M27.4 9.3 C32.59 8.94, 37.36 5.67, 52.69 2.89" stroke="#000000" stroke-width="1" fill="none"></path></g><g transform="translate(1401.3682969192657 169.73373328836266) rotate(0 24.999865576649086 0.88019455146366)"><path d="M26.49 -7.89 C34.79 -5.96, 40.16 -1.56, 51.33 1.97 M28.25 -8.12 C33.14 -4.78, 37.73 -4.34, 52.69 2.89" stroke="#000000" stroke-width="1" fill="none"></path></g></g><mask></mask><g transform="translate(1478.4040270744358 255.05796240503588) rotate(0 18.589988708496094 12.5)"><text x="0" y="0" font-family="Virgil, Segoe UI Emoji" font-size="20px" fill="#000000" text-anchor="start" style="white-space: pre;" direction="ltr" dominant-baseline="text-before-edge">PLL</text></g><g stroke-linecap="round"><g transform="translate(1496.129986677057 249.20255876507122) rotate(0 0.03144854907930039 -20.467900933383163)"><path d="M0.97 -0.91 C-2.64 -15.71, 0.41 -27.7, -0.08 -41.3 M-0.88 0.36 C-1.1 -9.75, 0.07 -19.96, -0.79 -40.66" stroke="#000000" stroke-width="1" fill="none"></path></g><g transform="translate(1496.129986677057 249.20255876507122) rotate(0 0.03144854907930039 -20.467900933383163)"><path d="M7.51 -22.6 C1.91 -29.96, 2.76 -34.51, 0.05 -41.29 M5.67 -21.33 C3.8 -25.94, 3.33 -30.63, -0.66 -40.65" stroke="#000000" stroke-width="1" fill="none"></path></g><g transform="translate(1496.129986677057 249.20255876507122) rotate(0 0.03144854907930039 -20.467900933383163)"><path d="M-6.4 -22.33 C-7.22 -29.75, -1.61 -34.39, 0.05 -41.29 M-8.24 -21.05 C-6.57 -25.69, -3.5 -30.46, -0.66 -40.65" stroke="#000000" stroke-width="1" fill="none"></path></g></g><mask></mask><g stroke-linecap="round"><g transform="translate(480.0001220703125 424.12408780093887) rotate(0 -22.85991671816913 0.5247453536566695)"><path d="M-0.36 -0.73 C-8.27 -0.59, -39.79 0.23, -47.38 0.34 M1.66 1.5 C-5.88 1.86, -37.06 1.81, -45.04 1.71" stroke="#000000" stroke-width="1" fill="none"></path></g><g transform="translate(480.0001220703125 424.12408780093887) rotate(0 -22.85991671816913 0.5247453536566695)"><path d="M-24.29 -7.33 C-30.43 -2.45, -37.91 0.51, -43.82 1.29 M-22.12 -6.99 C-31.73 -3.62, -40.66 -0.02, -44.66 2.58" stroke="#000000" stroke-width="1" fill="none"></path></g><g transform="translate(480.0001220703125 424.12408780093887) rotate(0 -22.85991671816913 0.5247453536566695)"><path d="M-24.38 8.63 C-30.43 8.57, -37.88 6.61, -43.82 1.29 M-22.22 8.98 C-31.64 6.01, -40.53 3.28, -44.66 2.58" stroke="#000000" stroke-width="1" fill="none"></path></g></g><mask></mask><g stroke-linecap="round"><g transform="translate(1575.3407565893601 35.643146679139846) rotate(0 30.03490865004983 -0.18183601386026282)"><path d="M0.68 -0.93 C13.11 1.21, 26.52 1.12, 58.45 -0.4 M0.53 0.59 C22.28 0.92, 43.86 0.34, 59.54 -1.08" stroke="#000000" stroke-width="1" fill="none"></path></g></g><mask></mask><g stroke-linecap="round"><g transform="translate(729.5266037298879 425.6266965650138) rotate(0 -26.19322970645044 1.1158288011763489)"><path d="M-0.36 -0.73 C-9.38 -0.38, -45.35 1.28, -54.04 1.6 M1.66 1.5 C-6.99 2.07, -42.62 2.86, -51.71 2.97" stroke="#000000" stroke-width="1" fill="none"></path></g><g transform="translate(729.5266037298879 425.6266965650138) rotate(0 -26.19322970645044 1.1158288011763489)"><path d="M-28.02 -7.8 C-35.09 -2.4, -43.47 1.1, -50.48 2.55 M-25.86 -7.46 C-36.65 -3.43, -46.74 0.85, -51.33 3.83" stroke="#000000" stroke-width="1" fill="none"></path></g><g transform="translate(729.5266037298879 425.6266965650138) rotate(0 -26.19322970645044 1.1158288011763489)"><path d="M-27.69 10.45 C-34.77 10.21, -43.26 8.07, -50.48 2.55 M-25.53 10.79 C-36.28 7.58, -46.5 4.62, -51.33 3.83" stroke="#000000" stroke-width="1" fill="none"></path></g></g><mask></mask><g stroke-linecap="round"><g transform="translate(955.5266037298879 432.9326554355634) rotate(0 -19.526603729887825 0.18213240242914708)"><path d="M-0.36 -0.73 C-7.16 -0.84, -34.24 -1, -40.71 -1.14 M1.66 1.5 C-4.77 1.61, -31.5 0.58, -38.37 0.22" stroke="#000000" stroke-width="1" fill="none"></path></g><g transform="translate(955.5266037298879 432.9326554355634) rotate(0 -19.526603729887825 0.18213240242914708)"><path d="M-20.52 -6.98 C-25.76 -2.66, -32.34 -0.26, -37.15 -0.19 M-18.35 -6.64 C-26.8 -3.97, -34.57 -1.1, -38 1.09" stroke="#000000" stroke-width="1" fill="none"></path></g><g transform="translate(955.5266037298879 432.9326554355634) rotate(0 -19.526603729887825 0.18213240242914708)"><path d="M-21.11 6.69 C-26.11 6.79, -32.51 4.96, -37.15 -0.19 M-18.95 7.04 C-27.03 4.28, -34.57 1.73, -38 1.09" stroke="#000000" stroke-width="1" fill="none"></path></g></g><mask></mask><g stroke-linecap="round"><g transform="translate(1634.2151508893871 35.11455209277) rotate(0 -13.701752035956588 31.07862302077305)"><path d="M0.32 1.44 C-7.29 20.52, -18.9 43.2, -27.79 63.11 M0.91 -0.95 C-9.83 23.19, -21.74 47.61, -28.31 60.83" stroke="#000000" stroke-width="1" fill="none"></path></g></g><mask></mask><g stroke-linecap="round"><g transform="translate(1207.5267258002004 433.9326554355634) rotate(0 -22.859916718169075 0.5247453536566695)"><path d="M-0.36 -0.73 C-8.27 -0.59, -39.79 0.23, -47.38 0.34 M1.66 1.5 C-5.88 1.86, -37.06 1.81, -45.04 1.71" stroke="#000000" stroke-width="1" fill="none"></path></g><g transform="translate(1207.5267258002004 433.9326554355634) rotate(0 -22.859916718169075 0.5247453536566695)"><path d="M-24.29 -7.33 C-30.43 -2.45, -37.91 0.51, -43.82 1.29 M-22.12 -6.99 C-31.73 -3.62, -40.66 -0.02, -44.66 2.58" stroke="#000000" stroke-width="1" fill="none"></path></g><g transform="translate(1207.5267258002004 433.9326554355634) rotate(0 -22.859916718169075 0.5247453536566695)"><path d="M-24.38 8.63 C-30.43 8.57, -37.88 6.61, -43.82 1.29 M-22.22 8.98 C-31.64 6.01, -40.53 3.28, -44.66 2.58" stroke="#000000" stroke-width="1" fill="none"></path></g></g><mask></mask><g stroke-linecap="round"><g transform="translate(1606.577109973834 97.4211984491634) rotate(0 -15.374683536910993 -31.52093208378747)"><path d="M-0.17 -1.43 C-11.28 -20.81, -18.55 -38.53, -31.33 -63.77 M0.58 0.73 C-10.4 -22.3, -21.57 -42.32, -29.95 -63.01" stroke="#000000" stroke-width="1" fill="none"></path></g></g><mask></mask><g stroke-linecap="round"><g transform="translate(1606.2852346147392 37.07025150347732) rotate(0 0.624261092448819 65.61662702903985)"><path d="M-1.01 -1.08 C-0.14 30.9, -1.58 64.28, -0.08 132.31 M1 0.48 C-0.16 37.04, 0.65 72.97, 2.25 132.12" stroke="#000000" stroke-width="1" fill="none"></path></g></g><mask></mask><g stroke-linecap="round"><g transform="translate(238.19335177676282 423.9326554355634) rotate(0 -22.85991671816913 0.5247453536566695)"><path d="M-0.36 -0.73 C-8.27 -0.59, -39.79 0.23, -47.38 0.34 M1.66 1.5 C-5.88 1.86, -37.06 1.81, -45.04 1.71" stroke="#000000" stroke-width="1" fill="none"></path></g><g transform="translate(238.19335177676282 423.9326554355634) rotate(0 -22.85991671816913 0.5247453536566695)"><path d="M-24.29 -7.33 C-30.43 -2.45, -37.91 0.51, -43.82 1.29 M-22.12 -6.99 C-31.73 -3.62, -40.66 -0.02, -44.66 2.58" stroke="#000000" stroke-width="1" fill="none"></path></g><g transform="translate(238.19335177676282 423.9326554355634) rotate(0 -22.85991671816913 0.5247453536566695)"><path d="M-24.38 8.63 C-30.43 8.57, -37.88 6.61, -43.82 1.29 M-22.22 8.98 C-31.64 6.01, -40.53 3.28, -44.66 2.58" stroke="#000000" stroke-width="1" fill="none"></path></g></g><mask></mask><g stroke-linecap="round"><g transform="translate(1608.0682820220632 168.06677800946568) rotate(0 -42.01451698387609 0.3678171566276376)"><path d="M-1.81 -1.55 C-19.87 1.67, -36.65 2.15, -84.27 2.29 M0.24 -0.43 C-17.12 -0.57, -34.51 -0.26, -83.62 1.6" stroke="#000000" stroke-width="1" fill="none"></path></g></g><mask></mask><g stroke-linecap="round" transform="translate(1470.2903454210057 398.497967563081) rotate(0 31.307242252714786 30.807337173754092)"><path d="M20.69 1.06 C26.62 -1.27, 35.64 0.12, 41.96 2.44 C48.28 4.76, 55.05 9.48, 58.59 14.99 C62.12 20.49, 64.42 29, 63.17 35.47 C61.93 41.94, 56.45 49.57, 51.12 53.79 C45.78 58.02, 37.89 60.83, 31.16 60.82 C24.42 60.8, 15.71 57.69, 10.72 53.68 C5.73 49.66, 2.45 43.13, 1.22 36.73 C0 30.33, -0.61 21.46, 3.36 15.28 C7.33 9.1, 20.47 1.98, 25.03 -0.35 C29.58 -2.69, 30.49 0.52, 30.66 1.26 M26.6 0.33 C33.17 -0.79, 43.85 1.71, 49.58 5.24 C55.3 8.78, 59.04 15.45, 60.96 21.53 C62.87 27.61, 63.86 35.78, 61.05 41.71 C58.24 47.64, 50.28 53.73, 44.11 57.1 C37.94 60.48, 30.36 63.08, 24.03 61.97 C17.7 60.85, 10.23 55.99, 6.14 50.4 C2.05 44.81, -0.97 34.99, -0.51 28.42 C-0.05 21.86, 4.39 15.88, 8.92 11.01 C13.44 6.14, 23.58 0.83, 26.64 -0.8 C29.69 -2.43, 27.27 0.73, 27.24 1.22" stroke="#000000" stroke-width="1" fill="none"></path></g><g stroke-linecap="round"><g transform="translate(1480.32990943426 406.45008063543565) rotate(0 22.811934683865047 21.354512538978213)"><path d="M0.66 -0.11 C11.75 11.34, 18.65 18.49, 44.96 42.72 M0.96 -0.54 C17.52 17.52, 34.53 33.73, 43.98 43.25" stroke="#000000" stroke-width="1" fill="none"></path></g></g><mask></mask><g stroke-linecap="round"><g transform="translate(1523.5977433522546 407.4085992233195) rotate(0 -23.422605351296852 20.17898696920082)"><path d="M-1.4 -1.36 C-15.49 14.78, -36 30.17, -44.55 41.44 M-0.91 -0.93 C-14.56 13.96, -29.6 25.34, -45.94 41.71" stroke="#000000" stroke-width="1" fill="none"></path></g></g><mask></mask><g transform="translate(1488.2175962769295 516.6839114857189) rotate(0 18.589988708496094 12.5)"><text x="0" y="0" font-family="Virgil, Segoe UI Emoji" font-size="20px" fill="#000000" text-anchor="start" style="white-space: pre;" direction="ltr" dominant-baseline="text-before-edge">PLL</text></g><g stroke-linecap="round"><g transform="translate(1505.943555879551 510.82850784575413) rotate(0 0.03144854907930039 -20.46790093338319)"><path d="M0.97 -0.91 C-2.64 -15.71, 0.41 -27.7, -0.08 -41.3 M-0.88 0.36 C-1.1 -9.75, 0.07 -19.96, -0.79 -40.66" stroke="#000000" stroke-width="1" fill="none"></path></g><g transform="translate(1505.943555879551 510.82850784575413) rotate(0 0.03144854907930039 -20.46790093338319)"><path d="M7.51 -22.6 C1.91 -29.96, 2.76 -34.51, 0.05 -41.29 M5.67 -21.33 C3.8 -25.94, 3.33 -30.63, -0.66 -40.65" stroke="#000000" stroke-width="1" fill="none"></path></g><g transform="translate(1505.943555879551 510.82850784575413) rotate(0 0.03144854907930039 -20.46790093338319)"><path d="M-6.4 -22.33 C-7.22 -29.75, -1.61 -34.39, 0.05 -41.29 M-8.24 -21.05 C-6.57 -25.69, -3.5 -30.46, -0.66 -40.65" stroke="#000000" stroke-width="1" fill="none"></path></g></g><mask></mask><g stroke-linecap="round"><g transform="translate(1585.1543257918536 297.26909575982285) rotate(0 30.03490865004983 -0.18183601386027703)"><path d="M0.68 -0.93 C13.11 1.21, 26.52 1.12, 58.45 -0.4 M0.53 0.59 C22.28 0.92, 43.86 0.34, 59.54 -1.08" stroke="#000000" stroke-width="1" fill="none"></path></g></g><mask></mask><g stroke-linecap="round"><g transform="translate(1644.0287200918808 296.74050117345297) rotate(0 -13.701752035956588 31.07862302077305)"><path d="M0.32 1.44 C-7.29 20.52, -18.9 43.2, -27.79 63.11 M0.91 -0.95 C-9.83 23.19, -21.74 47.61, -28.31 60.83" stroke="#000000" stroke-width="1" fill="none"></path></g></g><mask></mask><g stroke-linecap="round"><g transform="translate(1616.3906791763277 359.0471475298464) rotate(0 -15.374683536910993 -31.52093208378747)"><path d="M-0.17 -1.43 C-11.28 -20.81, -18.55 -38.53, -31.33 -63.77 M0.58 0.73 C-10.4 -22.3, -21.57 -42.32, -29.95 -63.01" stroke="#000000" stroke-width="1" fill="none"></path></g></g><mask></mask><g stroke-linecap="round"><g transform="translate(1616.098803817233 298.6962005841603) rotate(0 0.624261092448819 65.61662702903982)"><path d="M-1.01 -1.08 C-0.14 30.9, -1.58 64.28, -0.08 132.31 M1 0.48 C-0.16 37.04, 0.65 72.97, 2.25 132.12" stroke="#000000" stroke-width="1" fill="none"></path></g></g><mask></mask><g stroke-linecap="round"><g transform="translate(1617.8818512245568 429.6927270901486) rotate(0 -42.01451698387609 0.36781715662760917)"><path d="M-1.81 -1.55 C-19.87 1.67, -36.65 2.15, -84.27 2.29 M0.24 -0.43 C-17.12 -0.57, -34.51 -0.26, -83.62 1.6" stroke="#000000" stroke-width="1" fill="none"></path></g></g><mask></mask><g stroke-linecap="round"><g transform="translate(1466.8336010940234 430.9751900907665) rotate(0 -36.69281408970369 0.5841951969630941)"><path d="M-0.66 1.74 C-23.53 -1.27, -48.57 -0.2, -71.84 0.21 M-0.55 -0.67 C-24.15 -0.21, -46.35 0.59, -72.84 1.84" stroke="#000000" stroke-width="1" fill="none"></path></g><g transform="translate(1466.8336010940234 430.9751900907665) rotate(0 -36.69281408970369 0.5841951969630941)"><path d="M-45.78 -7.92 C-53.93 -7.65, -64.28 -3.19, -71.9 0.98 M-45.67 -10.32 C-54.74 -6.2, -62.4 -2.04, -72.9 2.6" stroke="#000000" stroke-width="1" fill="none"></path></g><g transform="translate(1466.8336010940234 430.9751900907665) rotate(0 -36.69281408970369 0.5841951969630941)"><path d="M-44.88 12.58 C-53.4 6.17, -64.04 3.95, -71.9 0.98 M-44.77 10.18 C-54.11 7.68, -62.06 5.22, -72.9 2.6" stroke="#000000" stroke-width="1" fill="none"></path></g></g><mask></mask><g stroke-linecap="round"><g transform="translate(704.7048189150926 22.176681576025373) rotate(0 1.488543866880434 275.18870520301203)"><path d="M0.15 -0.18 C2.03 122.3, 3.32 245.04, 2.64 550.56" stroke="#000000" stroke-width="1.5" fill="none" stroke-dasharray="8 9"></path></g></g><mask></mask><g stroke-linecap="round"><g transform="translate(1183.7096501075107 10.178139393031614) rotate(0 1.4885438668803772 275.188705203012)"><path d="M0.15 -0.18 C2.03 122.3, 3.32 245.04, 2.64 550.56" stroke="#000000" stroke-width="1.5" fill="none" stroke-dasharray="8 9"></path></g></g><mask></mask><g transform="translate(264.96411298440967 289.50310189807743) rotate(0 86.07994079589844 12.5)"><text x="0" y="0" font-family="Virgil, Segoe UI Emoji" font-size="20px" fill="#000000" text-anchor="start" style="white-space: pre;" direction="ltr" dominant-baseline="text-before-edge">HOST COMPUTEr</text></g><g transform="translate(855.178874813515 291.23049631767327) rotate(0 114.26994323730469 12.5)"><text x="0" y="0" font-family="Virgil, Segoe UI Emoji" font-size="20px" fill="#000000" text-anchor="start" style="white-space: pre;" direction="ltr" dominant-baseline="text-before-edge">USRP MOTHER BOARD</text></g><g transform="translate(1253.7109025049704 298.948552838358) rotate(0 128.7399444580078 12.5)"><text x="0" y="0" font-family="Virgil, Segoe UI Emoji" font-size="20px" fill="#000000" text-anchor="start" style="white-space: pre;" direction="ltr" dominant-baseline="text-before-edge">USRP DAUGHTER BOARD</text></g></svg>